<?xml version="1.0" encoding="utf-8"?>
<!-- Generator: Adobe Illustrator 16.0.0, SVG Export Plug-In . SVG Version: 6.00 Build 0)  -->
<!DOCTYPE svg PUBLIC "-//W3C//DTD SVG 1.1//EN" "http://www.w3.org/Graphics/SVG/1.1/DTD/svg11.dtd">
<svg version="1.1" id="Capa_1" xmlns="http://www.w3.org/2000/svg" xmlns:xlink="http://www.w3.org/1999/xlink" x="0px" y="0px"
	 width="13.172px" height="7.105px" viewBox="0 0 13.172 7.105" enable-background="new 0 0 13.172 7.105" xml:space="preserve">
<g id="Page-1">
	<g id="_x31_" transform="translate(-425.000000, -2686.000000)">
		<g id="Page-1-Copy-2" transform="translate(425.000000, 2686.000000)">
			<g id="Clip-2">
			</g>
			<defs>
				<filter id="Adobe_OpacityMaskFilter" filterUnits="userSpaceOnUse" x="0.11" y="0.117" width="12.952" height="6.87">
					<feColorMatrix  type="matrix" values="1 0 0 0 0  0 1 0 0 0  0 0 1 0 0  0 0 0 1 0"/>
				</filter>
			</defs>
			<mask maskUnits="userSpaceOnUse" x="0.11" y="0.117" width="12.952" height="6.87" id="mask-2_1_">
				<g filter="url(#Adobe_OpacityMaskFilter)">
					<path id="path-1_1_" fill="#FFFFFF" d="M13.061,6.988v-6.87H0.11v6.87H13.061L13.061,6.988z"/>
				</g>
			</mask>
			<path id="Fill-1" mask="url(#mask-2_1_)" fill="#2B1AAF" d="M5.941,6.74l-5.58-5.189c-0.346-0.339-0.332-0.874,0.03-1.196
				c0.352-0.312,0.903-0.312,1.255,0l4.938,4.593l4.938-4.593c0.361-0.324,0.936-0.315,1.285,0.021c0.34,0.328,0.34,0.848,0,1.176
				L7.227,6.74C6.871,7.071,6.297,7.07,5.941,6.74"/>
		</g>
	</g>
</g>
</svg>
